<?xml version="1.0" standalone="no"?><!DOCTYPE svg PUBLIC "-//W3C//DTD SVG 1.1//EN" "http://www.w3.org/Graphics/SVG/1.1/DTD/svg11.dtd"><svg t="1563261912082" class="icon" viewBox="0 0 1024 1024" version="1.1" xmlns="http://www.w3.org/2000/svg" p-id="1165" xmlns:xlink="http://www.w3.org/1999/xlink" width="200" height="200"><defs><style type="text/css"></style></defs><path d="M512.00614 94.919647c-193.547748 0-345.170724 144.854843-345.170724 329.73725 0 180.304145 312.23568 473.692609 325.522261 486.108359l19.648463 18.315097 19.606507-18.315097c13.315234-12.415749 325.550913-305.804213 325.550914-486.108359 0-184.882408-151.622976-329.737251-345.157421-329.73725z m0 755.032689c-95.544885-93.086909-287.643634-305.130879-287.643635-425.295439 0-155.163609 123.647887-272.182532 287.643635-272.182532 163.982444 0 287.630331 117.018923 287.630331 272.182532 0 120.050973-192.127401 332.153272-287.630331 425.295439z" p-id="1166"></path><path d="M512.00614 290.672615c-79.308118 0-143.827445 64.52035-143.827446 143.816189 0 79.294816 64.519327 143.844842 143.827446 143.844841 79.26821 0 143.814142-64.550026 143.814142-143.844841 0-79.295839-64.545933-143.816189-143.814142-143.816189z m0 230.104265c-47.595923 0-86.301379-38.704433-86.301379-86.288076 0-47.583643 38.705456-86.289099 86.301379-86.2891 47.583643 0 86.289099 38.705456 86.289099 86.2891 0 47.58262-38.705456 86.288076-86.289099 86.288076z" p-id="1167"></path></svg>